<mxfile host="app.diagrams.net" agent="Mozilla/5.0 (Windows NT 10.0; Win64; x64; rv:128.0) Gecko/20100101 Firefox/128.0" version="24.7.5">
  <diagram id="C5RBs43oDa-KdzZeNtuy" name="Page-1">
    <mxGraphModel dx="1439" dy="679" grid="1" gridSize="10" guides="1" tooltips="1" connect="1" arrows="1" fold="1" page="1" pageScale="1" pageWidth="827" pageHeight="1169" math="0" shadow="0">
      <root>
        <mxCell id="WIyWlLk6GJQsqaUBKTNV-0" />
        <mxCell id="WIyWlLk6GJQsqaUBKTNV-1" parent="WIyWlLk6GJQsqaUBKTNV-0" />
        <mxCell id="NpW_n_X_tTtmZRL8PVY6-8" value="" style="edgeStyle=orthogonalEdgeStyle;rounded=0;orthogonalLoop=1;jettySize=auto;html=1;" edge="1" parent="WIyWlLk6GJQsqaUBKTNV-1" source="NpW_n_X_tTtmZRL8PVY6-2" target="NpW_n_X_tTtmZRL8PVY6-7">
          <mxGeometry relative="1" as="geometry" />
        </mxCell>
        <mxCell id="NpW_n_X_tTtmZRL8PVY6-2" value="start" style="strokeWidth=2;html=1;shape=mxgraph.flowchart.terminator;whiteSpace=wrap;" vertex="1" parent="WIyWlLk6GJQsqaUBKTNV-1">
          <mxGeometry x="85" y="10" width="100" height="60" as="geometry" />
        </mxCell>
        <mxCell id="NpW_n_X_tTtmZRL8PVY6-3" value="end" style="strokeWidth=2;html=1;shape=mxgraph.flowchart.terminator;whiteSpace=wrap;" vertex="1" parent="WIyWlLk6GJQsqaUBKTNV-1">
          <mxGeometry x="210" y="310" width="100" height="60" as="geometry" />
        </mxCell>
        <mxCell id="NpW_n_X_tTtmZRL8PVY6-10" value="" style="edgeStyle=orthogonalEdgeStyle;rounded=0;orthogonalLoop=1;jettySize=auto;html=1;" edge="1" parent="WIyWlLk6GJQsqaUBKTNV-1" source="NpW_n_X_tTtmZRL8PVY6-7" target="NpW_n_X_tTtmZRL8PVY6-9">
          <mxGeometry relative="1" as="geometry" />
        </mxCell>
        <mxCell id="NpW_n_X_tTtmZRL8PVY6-7" value="import libraries" style="whiteSpace=wrap;html=1;strokeWidth=2;" vertex="1" parent="WIyWlLk6GJQsqaUBKTNV-1">
          <mxGeometry x="75" y="100" width="120" height="60" as="geometry" />
        </mxCell>
        <mxCell id="NpW_n_X_tTtmZRL8PVY6-12" value="" style="edgeStyle=orthogonalEdgeStyle;rounded=0;orthogonalLoop=1;jettySize=auto;html=1;" edge="1" parent="WIyWlLk6GJQsqaUBKTNV-1" source="NpW_n_X_tTtmZRL8PVY6-9" target="NpW_n_X_tTtmZRL8PVY6-11">
          <mxGeometry relative="1" as="geometry" />
        </mxCell>
        <mxCell id="NpW_n_X_tTtmZRL8PVY6-9" value="define catalog dict" style="whiteSpace=wrap;html=1;strokeWidth=2;" vertex="1" parent="WIyWlLk6GJQsqaUBKTNV-1">
          <mxGeometry x="75" y="190" width="120" height="60" as="geometry" />
        </mxCell>
        <mxCell id="NpW_n_X_tTtmZRL8PVY6-14" value="" style="edgeStyle=orthogonalEdgeStyle;rounded=0;orthogonalLoop=1;jettySize=auto;html=1;fontFamily=Helvetica;fontSize=12;fontColor=default;" edge="1" parent="WIyWlLk6GJQsqaUBKTNV-1" source="NpW_n_X_tTtmZRL8PVY6-11" target="NpW_n_X_tTtmZRL8PVY6-13">
          <mxGeometry relative="1" as="geometry" />
        </mxCell>
        <mxCell id="NpW_n_X_tTtmZRL8PVY6-11" value="define a cart dict to same dimensions as catalog" style="whiteSpace=wrap;html=1;strokeWidth=2;" vertex="1" parent="WIyWlLk6GJQsqaUBKTNV-1">
          <mxGeometry x="75" y="280" width="120" height="60" as="geometry" />
        </mxCell>
        <mxCell id="NpW_n_X_tTtmZRL8PVY6-16" value="" style="edgeStyle=orthogonalEdgeStyle;rounded=0;orthogonalLoop=1;jettySize=auto;html=1;fontFamily=Helvetica;fontSize=12;fontColor=default;" edge="1" parent="WIyWlLk6GJQsqaUBKTNV-1" source="NpW_n_X_tTtmZRL8PVY6-13" target="NpW_n_X_tTtmZRL8PVY6-15">
          <mxGeometry relative="1" as="geometry" />
        </mxCell>
        <mxCell id="NpW_n_X_tTtmZRL8PVY6-13" value="set globals_namespace" style="whiteSpace=wrap;html=1;strokeWidth=2;" vertex="1" parent="WIyWlLk6GJQsqaUBKTNV-1">
          <mxGeometry x="75" y="370" width="120" height="60" as="geometry" />
        </mxCell>
        <mxCell id="NpW_n_X_tTtmZRL8PVY6-18" value="" style="edgeStyle=orthogonalEdgeStyle;rounded=0;orthogonalLoop=1;jettySize=auto;html=1;fontFamily=Helvetica;fontSize=12;fontColor=default;" edge="1" parent="WIyWlLk6GJQsqaUBKTNV-1" source="NpW_n_X_tTtmZRL8PVY6-15" target="NpW_n_X_tTtmZRL8PVY6-17">
          <mxGeometry relative="1" as="geometry" />
        </mxCell>
        <mxCell id="NpW_n_X_tTtmZRL8PVY6-15" value="set discounts dictionary" style="whiteSpace=wrap;html=1;strokeWidth=2;" vertex="1" parent="WIyWlLk6GJQsqaUBKTNV-1">
          <mxGeometry x="75" y="460" width="120" height="60" as="geometry" />
        </mxCell>
        <mxCell id="NpW_n_X_tTtmZRL8PVY6-20" value="" style="edgeStyle=orthogonalEdgeStyle;rounded=0;orthogonalLoop=1;jettySize=auto;html=1;fontFamily=Helvetica;fontSize=12;fontColor=default;" edge="1" parent="WIyWlLk6GJQsqaUBKTNV-1" source="NpW_n_X_tTtmZRL8PVY6-17" target="NpW_n_X_tTtmZRL8PVY6-19">
          <mxGeometry relative="1" as="geometry" />
        </mxCell>
        <mxCell id="NpW_n_X_tTtmZRL8PVY6-17" value="initialize selected category, item, discount, and cart" style="whiteSpace=wrap;html=1;strokeWidth=2;" vertex="1" parent="WIyWlLk6GJQsqaUBKTNV-1">
          <mxGeometry x="75" y="554.5" width="120" height="60" as="geometry" />
        </mxCell>
        <mxCell id="NpW_n_X_tTtmZRL8PVY6-22" value="" style="edgeStyle=orthogonalEdgeStyle;rounded=0;orthogonalLoop=1;jettySize=auto;html=1;fontFamily=Helvetica;fontSize=12;fontColor=default;" edge="1" parent="WIyWlLk6GJQsqaUBKTNV-1" source="NpW_n_X_tTtmZRL8PVY6-19" target="NpW_n_X_tTtmZRL8PVY6-21">
          <mxGeometry relative="1" as="geometry" />
        </mxCell>
        <mxCell id="NpW_n_X_tTtmZRL8PVY6-19" value="initialize calculatino amounts" style="whiteSpace=wrap;html=1;strokeWidth=2;" vertex="1" parent="WIyWlLk6GJQsqaUBKTNV-1">
          <mxGeometry x="75" y="640" width="120" height="60" as="geometry" />
        </mxCell>
        <mxCell id="NpW_n_X_tTtmZRL8PVY6-26" value="" style="edgeStyle=orthogonalEdgeStyle;rounded=0;orthogonalLoop=1;jettySize=auto;html=1;fontFamily=Helvetica;fontSize=12;fontColor=default;" edge="1" parent="WIyWlLk6GJQsqaUBKTNV-1" source="NpW_n_X_tTtmZRL8PVY6-21" target="NpW_n_X_tTtmZRL8PVY6-25">
          <mxGeometry relative="1" as="geometry" />
        </mxCell>
        <mxCell id="NpW_n_X_tTtmZRL8PVY6-21" value="&lt;div&gt;set appearance settings&lt;/div&gt;&lt;div&gt;&amp;nbsp;to dark, and colour&lt;/div&gt;&lt;div&gt;&amp;nbsp;to dark-blue&lt;/div&gt;" style="shape=parallelogram;perimeter=parallelogramPerimeter;whiteSpace=wrap;html=1;fixedSize=1;strokeWidth=2;" vertex="1" parent="WIyWlLk6GJQsqaUBKTNV-1">
          <mxGeometry x="60" y="720" width="150" height="60" as="geometry" />
        </mxCell>
        <mxCell id="NpW_n_X_tTtmZRL8PVY6-29" value="" style="edgeStyle=orthogonalEdgeStyle;rounded=0;orthogonalLoop=1;jettySize=auto;html=1;fontFamily=Helvetica;fontSize=12;fontColor=default;" edge="1" parent="WIyWlLk6GJQsqaUBKTNV-1" source="NpW_n_X_tTtmZRL8PVY6-25" target="NpW_n_X_tTtmZRL8PVY6-28">
          <mxGeometry relative="1" as="geometry" />
        </mxCell>
        <mxCell id="NpW_n_X_tTtmZRL8PVY6-25" value="&lt;div&gt;set title and&lt;/div&gt;&lt;div&gt;widndow&amp;nbsp; minimum size&lt;br&gt;&lt;/div&gt;" style="shape=parallelogram;perimeter=parallelogramPerimeter;whiteSpace=wrap;html=1;fixedSize=1;strokeWidth=2;" vertex="1" parent="WIyWlLk6GJQsqaUBKTNV-1">
          <mxGeometry x="75" y="800" width="120" height="60" as="geometry" />
        </mxCell>
        <mxCell id="NpW_n_X_tTtmZRL8PVY6-31" value="" style="edgeStyle=orthogonalEdgeStyle;rounded=0;orthogonalLoop=1;jettySize=auto;html=1;fontFamily=Helvetica;fontSize=12;fontColor=default;" edge="1" parent="WIyWlLk6GJQsqaUBKTNV-1" source="NpW_n_X_tTtmZRL8PVY6-28" target="NpW_n_X_tTtmZRL8PVY6-30">
          <mxGeometry relative="1" as="geometry" />
        </mxCell>
        <mxCell id="NpW_n_X_tTtmZRL8PVY6-28" value="set itemList to get_items()" style="shape=process;whiteSpace=wrap;html=1;backgroundOutline=1;strokeWidth=2;" vertex="1" parent="WIyWlLk6GJQsqaUBKTNV-1">
          <mxGeometry x="75" y="880" width="120" height="60" as="geometry" />
        </mxCell>
        <mxCell id="NpW_n_X_tTtmZRL8PVY6-33" value="" style="edgeStyle=orthogonalEdgeStyle;rounded=0;orthogonalLoop=1;jettySize=auto;html=1;fontFamily=Helvetica;fontSize=12;fontColor=default;" edge="1" parent="WIyWlLk6GJQsqaUBKTNV-1" source="NpW_n_X_tTtmZRL8PVY6-30" target="NpW_n_X_tTtmZRL8PVY6-32">
          <mxGeometry relative="1" as="geometry" />
        </mxCell>
        <mxCell id="NpW_n_X_tTtmZRL8PVY6-30" value="&lt;div&gt;set up masterFrame&lt;/div&gt;&lt;div&gt;with tans shopping, cart, and settings&lt;/div&gt;" style="shape=parallelogram;perimeter=parallelogramPerimeter;whiteSpace=wrap;html=1;fixedSize=1;strokeWidth=2;" vertex="1" parent="WIyWlLk6GJQsqaUBKTNV-1">
          <mxGeometry x="60" y="970" width="150" height="60" as="geometry" />
        </mxCell>
        <mxCell id="NpW_n_X_tTtmZRL8PVY6-35" value="" style="edgeStyle=orthogonalEdgeStyle;rounded=0;orthogonalLoop=1;jettySize=auto;html=1;fontFamily=Helvetica;fontSize=12;fontColor=default;" edge="1" parent="WIyWlLk6GJQsqaUBKTNV-1" source="NpW_n_X_tTtmZRL8PVY6-32" target="NpW_n_X_tTtmZRL8PVY6-34">
          <mxGeometry relative="1" as="geometry" />
        </mxCell>
        <mxCell id="NpW_n_X_tTtmZRL8PVY6-32" value="&lt;div&gt;initialize frames&lt;/div&gt;&lt;div&gt;used after checkout&lt;/div&gt;" style="shape=parallelogram;perimeter=parallelogramPerimeter;whiteSpace=wrap;html=1;fixedSize=1;strokeWidth=2;" vertex="1" parent="WIyWlLk6GJQsqaUBKTNV-1">
          <mxGeometry x="70" y="1060" width="130" height="60" as="geometry" />
        </mxCell>
        <mxCell id="NpW_n_X_tTtmZRL8PVY6-37" value="" style="edgeStyle=orthogonalEdgeStyle;rounded=0;orthogonalLoop=1;jettySize=auto;html=1;fontFamily=Helvetica;fontSize=12;fontColor=default;" edge="1" parent="WIyWlLk6GJQsqaUBKTNV-1" source="NpW_n_X_tTtmZRL8PVY6-34" target="NpW_n_X_tTtmZRL8PVY6-36">
          <mxGeometry relative="1" as="geometry" />
        </mxCell>
        <mxCell id="NpW_n_X_tTtmZRL8PVY6-34" value="configure shopping frame" style="shape=parallelogram;perimeter=parallelogramPerimeter;whiteSpace=wrap;html=1;fixedSize=1;strokeWidth=2;" vertex="1" parent="WIyWlLk6GJQsqaUBKTNV-1">
          <mxGeometry x="70" y="1140" width="120" height="60" as="geometry" />
        </mxCell>
        <mxCell id="NpW_n_X_tTtmZRL8PVY6-39" value="" style="edgeStyle=orthogonalEdgeStyle;rounded=0;orthogonalLoop=1;jettySize=auto;html=1;fontFamily=Helvetica;fontSize=12;fontColor=default;" edge="1" parent="WIyWlLk6GJQsqaUBKTNV-1" source="NpW_n_X_tTtmZRL8PVY6-36" target="NpW_n_X_tTtmZRL8PVY6-38">
          <mxGeometry relative="1" as="geometry" />
        </mxCell>
        <mxCell id="NpW_n_X_tTtmZRL8PVY6-36" value="add a scrolling frame to cart tab" style="shape=parallelogram;perimeter=parallelogramPerimeter;whiteSpace=wrap;html=1;fixedSize=1;strokeWidth=2;" vertex="1" parent="WIyWlLk6GJQsqaUBKTNV-1">
          <mxGeometry x="70" y="1230" width="120" height="60" as="geometry" />
        </mxCell>
        <mxCell id="NpW_n_X_tTtmZRL8PVY6-41" value="is a new category selected?" style="edgeStyle=orthogonalEdgeStyle;rounded=0;orthogonalLoop=1;jettySize=auto;html=1;fontFamily=Helvetica;fontSize=12;fontColor=default;" edge="1" parent="WIyWlLk6GJQsqaUBKTNV-1" source="NpW_n_X_tTtmZRL8PVY6-38" target="NpW_n_X_tTtmZRL8PVY6-40">
          <mxGeometry relative="1" as="geometry" />
        </mxCell>
        <mxCell id="NpW_n_X_tTtmZRL8PVY6-44" value="" style="edgeStyle=orthogonalEdgeStyle;rounded=0;orthogonalLoop=1;jettySize=auto;html=1;fontFamily=Helvetica;fontSize=12;fontColor=default;" edge="1" parent="WIyWlLk6GJQsqaUBKTNV-1" source="NpW_n_X_tTtmZRL8PVY6-38" target="NpW_n_X_tTtmZRL8PVY6-43">
          <mxGeometry relative="1" as="geometry" />
        </mxCell>
        <mxCell id="NpW_n_X_tTtmZRL8PVY6-38" value="category selector" style="shape=parallelogram;perimeter=parallelogramPerimeter;whiteSpace=wrap;html=1;fixedSize=1;strokeWidth=2;" vertex="1" parent="WIyWlLk6GJQsqaUBKTNV-1">
          <mxGeometry x="70" y="1380" width="120" height="60" as="geometry" />
        </mxCell>
        <mxCell id="NpW_n_X_tTtmZRL8PVY6-42" style="edgeStyle=orthogonalEdgeStyle;rounded=0;orthogonalLoop=1;jettySize=auto;html=1;fontFamily=Helvetica;fontSize=12;fontColor=default;" edge="1" parent="WIyWlLk6GJQsqaUBKTNV-1">
          <mxGeometry relative="1" as="geometry">
            <mxPoint x="130" y="1330" as="targetPoint" />
            <mxPoint x="439.8811764705883" y="1380" as="sourcePoint" />
            <Array as="points">
              <mxPoint x="440" y="1330" />
              <mxPoint x="160" y="1330" />
            </Array>
          </mxGeometry>
        </mxCell>
        <mxCell id="NpW_n_X_tTtmZRL8PVY6-40" value="run cat_callback" style="shape=process;whiteSpace=wrap;html=1;backgroundOutline=1;strokeWidth=2;" vertex="1" parent="WIyWlLk6GJQsqaUBKTNV-1">
          <mxGeometry x="380" y="1380" width="120" height="60" as="geometry" />
        </mxCell>
        <mxCell id="NpW_n_X_tTtmZRL8PVY6-46" value="is a new item selected?" style="edgeStyle=orthogonalEdgeStyle;rounded=0;orthogonalLoop=1;jettySize=auto;html=1;fontFamily=Helvetica;fontSize=12;fontColor=default;" edge="1" parent="WIyWlLk6GJQsqaUBKTNV-1" source="NpW_n_X_tTtmZRL8PVY6-43" target="NpW_n_X_tTtmZRL8PVY6-45">
          <mxGeometry relative="1" as="geometry" />
        </mxCell>
        <mxCell id="NpW_n_X_tTtmZRL8PVY6-49" value="" style="edgeStyle=orthogonalEdgeStyle;rounded=0;orthogonalLoop=1;jettySize=auto;html=1;fontFamily=Helvetica;fontSize=12;fontColor=default;" edge="1" parent="WIyWlLk6GJQsqaUBKTNV-1" source="NpW_n_X_tTtmZRL8PVY6-43" target="NpW_n_X_tTtmZRL8PVY6-48">
          <mxGeometry relative="1" as="geometry" />
        </mxCell>
        <mxCell id="NpW_n_X_tTtmZRL8PVY6-43" value="item selector" style="shape=parallelogram;perimeter=parallelogramPerimeter;whiteSpace=wrap;html=1;fixedSize=1;strokeWidth=2;" vertex="1" parent="WIyWlLk6GJQsqaUBKTNV-1">
          <mxGeometry x="70" y="1520" width="120" height="60" as="geometry" />
        </mxCell>
        <mxCell id="NpW_n_X_tTtmZRL8PVY6-47" style="edgeStyle=orthogonalEdgeStyle;rounded=0;orthogonalLoop=1;jettySize=auto;html=1;fontFamily=Helvetica;fontSize=12;fontColor=default;" edge="1" parent="WIyWlLk6GJQsqaUBKTNV-1" source="NpW_n_X_tTtmZRL8PVY6-45">
          <mxGeometry relative="1" as="geometry">
            <mxPoint x="440" y="1330" as="targetPoint" />
            <Array as="points">
              <mxPoint x="570" y="1550" />
              <mxPoint x="570" y="1330" />
              <mxPoint x="450" y="1330" />
            </Array>
          </mxGeometry>
        </mxCell>
        <mxCell id="NpW_n_X_tTtmZRL8PVY6-45" value="run item_callback" style="shape=process;whiteSpace=wrap;html=1;backgroundOutline=1;strokeWidth=2;" vertex="1" parent="WIyWlLk6GJQsqaUBKTNV-1">
          <mxGeometry x="380" y="1520" width="120" height="60" as="geometry" />
        </mxCell>
        <mxCell id="NpW_n_X_tTtmZRL8PVY6-51" value="" style="edgeStyle=orthogonalEdgeStyle;rounded=0;orthogonalLoop=1;jettySize=auto;html=1;fontFamily=Helvetica;fontSize=12;fontColor=default;" edge="1" parent="WIyWlLk6GJQsqaUBKTNV-1" source="NpW_n_X_tTtmZRL8PVY6-48" target="NpW_n_X_tTtmZRL8PVY6-50">
          <mxGeometry relative="1" as="geometry" />
        </mxCell>
        <mxCell id="NpW_n_X_tTtmZRL8PVY6-48" value="create button frame" style="shape=parallelogram;perimeter=parallelogramPerimeter;whiteSpace=wrap;html=1;fixedSize=1;strokeWidth=2;" vertex="1" parent="WIyWlLk6GJQsqaUBKTNV-1">
          <mxGeometry x="60" y="1660" width="140" height="60" as="geometry" />
        </mxCell>
        <mxCell id="NpW_n_X_tTtmZRL8PVY6-53" value="plus button pressed?" style="edgeStyle=orthogonalEdgeStyle;rounded=0;orthogonalLoop=1;jettySize=auto;html=1;fontFamily=Helvetica;fontSize=12;fontColor=default;" edge="1" parent="WIyWlLk6GJQsqaUBKTNV-1" source="NpW_n_X_tTtmZRL8PVY6-50" target="NpW_n_X_tTtmZRL8PVY6-52">
          <mxGeometry relative="1" as="geometry" />
        </mxCell>
        <mxCell id="NpW_n_X_tTtmZRL8PVY6-55" value="is subtract button pressed" style="edgeStyle=orthogonalEdgeStyle;rounded=0;orthogonalLoop=1;jettySize=auto;html=1;fontFamily=Helvetica;fontSize=12;fontColor=default;" edge="1" parent="WIyWlLk6GJQsqaUBKTNV-1" source="NpW_n_X_tTtmZRL8PVY6-50" target="NpW_n_X_tTtmZRL8PVY6-54">
          <mxGeometry relative="1" as="geometry">
            <Array as="points">
              <mxPoint x="130" y="1910" />
            </Array>
            <mxPoint as="offset" />
          </mxGeometry>
        </mxCell>
        <mxCell id="NpW_n_X_tTtmZRL8PVY6-60" value="" style="edgeStyle=orthogonalEdgeStyle;rounded=0;orthogonalLoop=1;jettySize=auto;html=1;fontFamily=Helvetica;fontSize=12;fontColor=default;" edge="1" parent="WIyWlLk6GJQsqaUBKTNV-1" source="NpW_n_X_tTtmZRL8PVY6-50" target="NpW_n_X_tTtmZRL8PVY6-59">
          <mxGeometry relative="1" as="geometry" />
        </mxCell>
        <mxCell id="NpW_n_X_tTtmZRL8PVY6-50" value="&lt;div&gt;in button frame add&lt;/div&gt;&lt;div&gt;add button, item count&lt;/div&gt;&lt;div&gt;and subtract button&lt;br&gt;&lt;/div&gt;" style="shape=parallelogram;perimeter=parallelogramPerimeter;whiteSpace=wrap;html=1;fixedSize=1;strokeWidth=2;" vertex="1" parent="WIyWlLk6GJQsqaUBKTNV-1">
          <mxGeometry x="50" y="1780" width="160" height="60" as="geometry" />
        </mxCell>
        <mxCell id="NpW_n_X_tTtmZRL8PVY6-56" style="edgeStyle=orthogonalEdgeStyle;rounded=0;orthogonalLoop=1;jettySize=auto;html=1;fontFamily=Helvetica;fontSize=12;fontColor=default;" edge="1" parent="WIyWlLk6GJQsqaUBKTNV-1" source="NpW_n_X_tTtmZRL8PVY6-52">
          <mxGeometry relative="1" as="geometry">
            <mxPoint x="570" y="1550" as="targetPoint" />
          </mxGeometry>
        </mxCell>
        <mxCell id="NpW_n_X_tTtmZRL8PVY6-52" value="run plus_button" style="shape=process;whiteSpace=wrap;html=1;backgroundOutline=1;strokeWidth=2;" vertex="1" parent="WIyWlLk6GJQsqaUBKTNV-1">
          <mxGeometry x="380" y="1780" width="120" height="60" as="geometry" />
        </mxCell>
        <mxCell id="NpW_n_X_tTtmZRL8PVY6-57" style="edgeStyle=orthogonalEdgeStyle;rounded=0;orthogonalLoop=1;jettySize=auto;html=1;fontFamily=Helvetica;fontSize=12;fontColor=default;" edge="1" parent="WIyWlLk6GJQsqaUBKTNV-1" source="NpW_n_X_tTtmZRL8PVY6-54">
          <mxGeometry relative="1" as="geometry">
            <mxPoint x="570" y="1810" as="targetPoint" />
          </mxGeometry>
        </mxCell>
        <mxCell id="NpW_n_X_tTtmZRL8PVY6-54" value="subtract_button" style="shape=process;whiteSpace=wrap;html=1;backgroundOutline=1;strokeWidth=2;" vertex="1" parent="WIyWlLk6GJQsqaUBKTNV-1">
          <mxGeometry x="380" y="1880" width="120" height="60" as="geometry" />
        </mxCell>
        <mxCell id="NpW_n_X_tTtmZRL8PVY6-62" value="is enter key pressed" style="edgeStyle=orthogonalEdgeStyle;rounded=0;orthogonalLoop=1;jettySize=auto;html=1;fontFamily=Helvetica;fontSize=12;fontColor=default;" edge="1" parent="WIyWlLk6GJQsqaUBKTNV-1" source="NpW_n_X_tTtmZRL8PVY6-59" target="NpW_n_X_tTtmZRL8PVY6-61">
          <mxGeometry relative="1" as="geometry">
            <Array as="points">
              <mxPoint x="-50" y="2050" />
              <mxPoint x="190" y="2050" />
            </Array>
          </mxGeometry>
        </mxCell>
        <mxCell id="NpW_n_X_tTtmZRL8PVY6-64" value="is a key pressed" style="edgeStyle=orthogonalEdgeStyle;rounded=0;orthogonalLoop=1;jettySize=auto;html=1;fontFamily=Helvetica;fontSize=12;fontColor=default;" edge="1" parent="WIyWlLk6GJQsqaUBKTNV-1" source="NpW_n_X_tTtmZRL8PVY6-59" target="NpW_n_X_tTtmZRL8PVY6-63">
          <mxGeometry relative="1" as="geometry" />
        </mxCell>
        <mxCell id="NpW_n_X_tTtmZRL8PVY6-72" value="" style="edgeStyle=orthogonalEdgeStyle;rounded=0;orthogonalLoop=1;jettySize=auto;html=1;fontFamily=Helvetica;fontSize=12;fontColor=default;" edge="1" parent="WIyWlLk6GJQsqaUBKTNV-1" source="NpW_n_X_tTtmZRL8PVY6-59" target="NpW_n_X_tTtmZRL8PVY6-71">
          <mxGeometry relative="1" as="geometry" />
        </mxCell>
        <mxCell id="NpW_n_X_tTtmZRL8PVY6-59" value="set amountEntry" style="shape=parallelogram;perimeter=parallelogramPerimeter;whiteSpace=wrap;html=1;fixedSize=1;strokeWidth=2;" vertex="1" parent="WIyWlLk6GJQsqaUBKTNV-1">
          <mxGeometry x="-110" y="1950" width="120" height="60" as="geometry" />
        </mxCell>
        <mxCell id="NpW_n_X_tTtmZRL8PVY6-66" style="edgeStyle=orthogonalEdgeStyle;rounded=0;orthogonalLoop=1;jettySize=auto;html=1;fontFamily=Helvetica;fontSize=12;fontColor=default;" edge="1" parent="WIyWlLk6GJQsqaUBKTNV-1" source="NpW_n_X_tTtmZRL8PVY6-61">
          <mxGeometry relative="1" as="geometry">
            <mxPoint x="570" y="1980" as="targetPoint" />
          </mxGeometry>
        </mxCell>
        <mxCell id="NpW_n_X_tTtmZRL8PVY6-61" value="run set_amt" style="shape=process;whiteSpace=wrap;html=1;backgroundOutline=1;strokeWidth=2;" vertex="1" parent="WIyWlLk6GJQsqaUBKTNV-1">
          <mxGeometry x="380" y="2020" width="120" height="60" as="geometry" />
        </mxCell>
        <mxCell id="NpW_n_X_tTtmZRL8PVY6-65" style="edgeStyle=orthogonalEdgeStyle;rounded=0;orthogonalLoop=1;jettySize=auto;html=1;fontFamily=Helvetica;fontSize=12;fontColor=default;" edge="1" parent="WIyWlLk6GJQsqaUBKTNV-1" source="NpW_n_X_tTtmZRL8PVY6-63">
          <mxGeometry relative="1" as="geometry">
            <mxPoint x="570" y="1910" as="targetPoint" />
          </mxGeometry>
        </mxCell>
        <mxCell id="NpW_n_X_tTtmZRL8PVY6-63" value="run validate_key_int" style="shape=process;whiteSpace=wrap;html=1;backgroundOutline=1;strokeWidth=2;" vertex="1" parent="WIyWlLk6GJQsqaUBKTNV-1">
          <mxGeometry x="380" y="1950" width="120" height="60" as="geometry" />
        </mxCell>
        <mxCell id="NpW_n_X_tTtmZRL8PVY6-74" value="" style="edgeStyle=orthogonalEdgeStyle;rounded=0;orthogonalLoop=1;jettySize=auto;html=1;fontFamily=Helvetica;fontSize=12;fontColor=default;" edge="1" parent="WIyWlLk6GJQsqaUBKTNV-1" source="NpW_n_X_tTtmZRL8PVY6-71" target="NpW_n_X_tTtmZRL8PVY6-73">
          <mxGeometry relative="1" as="geometry" />
        </mxCell>
        <mxCell id="NpW_n_X_tTtmZRL8PVY6-71" value="get light,dark from get_image()" style="shape=process;whiteSpace=wrap;html=1;backgroundOutline=1;strokeWidth=2;" vertex="1" parent="WIyWlLk6GJQsqaUBKTNV-1">
          <mxGeometry x="-270" y="2090" width="120" height="60" as="geometry" />
        </mxCell>
        <mxCell id="NpW_n_X_tTtmZRL8PVY6-76" value="" style="edgeStyle=orthogonalEdgeStyle;rounded=0;orthogonalLoop=1;jettySize=auto;html=1;fontFamily=Helvetica;fontSize=12;fontColor=default;" edge="1" parent="WIyWlLk6GJQsqaUBKTNV-1" source="NpW_n_X_tTtmZRL8PVY6-73" target="NpW_n_X_tTtmZRL8PVY6-75">
          <mxGeometry relative="1" as="geometry" />
        </mxCell>
        <mxCell id="NpW_n_X_tTtmZRL8PVY6-73" value="set image" style="shape=parallelogram;perimeter=parallelogramPerimeter;whiteSpace=wrap;html=1;fixedSize=1;strokeWidth=2;" vertex="1" parent="WIyWlLk6GJQsqaUBKTNV-1">
          <mxGeometry x="-110" y="2090" width="120" height="60" as="geometry" />
        </mxCell>
        <mxCell id="NpW_n_X_tTtmZRL8PVY6-75" value="set info labels about item and totals" style="shape=parallelogram;perimeter=parallelogramPerimeter;whiteSpace=wrap;html=1;fixedSize=1;strokeWidth=2;" vertex="1" parent="WIyWlLk6GJQsqaUBKTNV-1">
          <mxGeometry x="-110" y="2180" width="120" height="60" as="geometry" />
        </mxCell>
      </root>
    </mxGraphModel>
  </diagram>
</mxfile>
